<?xml version="1.0" standalone="no"?>
<!DOCTYPE svg PUBLIC "-//W3C//DTD SVG 20010904//EN"
 "http://www.w3.org/TR/2001/REC-SVG-20010904/DTD/svg10.dtd">
<svg version="1.0" xmlns="http://www.w3.org/2000/svg"
 width="900.000000pt" height="900.000000pt" viewBox="0 0 900.000000 900.000000"
 preserveAspectRatio="xMidYMid meet">

<g transform="translate(0.000000,900.000000) scale(0.100000,-0.100000)"
fill="#000000" stroke="none">
<path d="M4355 7094 c-66 -7 -286 -44 -352 -59 -135 -31 -312 -101 -424 -168
-81 -48 -161 -99 -169 -107 -3 -4 -41 -34 -85 -67 -130 -99 -272 -254 -393
-430 -23 -33 -42 -66 -42 -72 0 -6 -4 -11 -9 -11 -4 0 -22 -30 -40 -67 -18
-38 -36 -75 -41 -83 -6 -8 -44 -91 -85 -185 -42 -93 -91 -203 -110 -243 -19
-39 -35 -74 -35 -77 0 -3 -48 -89 -107 -191 -60 -102 -121 -209 -137 -237 -16
-29 -59 -97 -95 -152 -174 -267 -243 -432 -242 -581 0 -46 4 -100 10 -121 6
-21 19 -80 31 -131 21 -98 73 -217 138 -317 117 -179 141 -221 200 -339 66
-132 117 -219 157 -265 185 -214 383 -473 435 -571 19 -36 52 -96 72 -135 21
-38 42 -80 48 -93 18 -41 89 -140 128 -178 83 -81 207 -126 402 -145 152 -15
648 -6 785 15 170 26 611 22 875 -9 330 -37 384 -40 464 -21 124 29 235 116
291 225 14 29 37 95 51 149 15 53 30 102 34 107 5 6 21 42 36 80 27 70 127
269 146 292 15 19 110 176 161 268 24 44 64 134 87 200 24 66 47 125 52 132 7
9 22 4 57 -16 144 -86 236 -115 447 -146 102 -15 119 -15 194 -1 97 18 147 46
167 94 28 67 -3 142 -144 357 -69 105 -216 301 -242 325 -16 14 -176 204 -228
270 -6 8 -40 51 -75 95 -236 298 -284 400 -367 775 -47 208 -123 488 -151 555
-4 11 -20 61 -35 110 -15 50 -31 95 -35 100 -3 6 -17 39 -30 75 -49 139 -132
264 -280 424 -79 85 -236 223 -300 264 -30 19 -57 38 -60 42 -3 4 -52 32 -110
62 -140 72 -305 131 -475 169 -126 28 -159 31 -335 34 -107 2 -213 1 -235 -1z
m377 -165 c296 -31 591 -154 820 -340 79 -65 238 -227 275 -282 15 -23 30 -44
33 -47 13 -13 61 -92 88 -146 58 -115 208 -594 251 -804 80 -387 79 -382 172
-575 21 -44 65 -117 96 -162 51 -73 405 -510 424 -523 37 -26 308 -401 309
-427 0 -4 9 -19 20 -33 29 -37 26 -60 -9 -60 -36 0 -187 26 -266 46 -81 20
-200 80 -306 154 -15 11 -42 23 -60 27 l-34 9 -6 105 c-4 57 -7 105 -8 107 0
1 -8 2 -16 2 -22 0 -30 -23 -64 -180 -44 -201 -66 -271 -117 -373 -24 -48 -48
-102 -53 -120 -24 -79 -45 -123 -98 -210 -31 -50 -62 -99 -68 -107 -23 -27
-111 -205 -145 -294 l-34 -88 -36 6 c-158 26 -272 12 -441 -53 -143 -56 -262
-129 -366 -228 l-34 -32 -292 -5 c-199 -3 -351 -11 -477 -25 -102 -12 -196
-21 -210 -21 -19 0 -33 13 -60 56 -36 58 -122 143 -196 194 -59 42 -197 96
-305 121 -70 16 -129 22 -231 23 l-136 1 -48 87 c-42 79 -214 308 -336 449
-178 206 -174 199 -100 192 41 -4 67 -1 88 10 18 9 99 21 214 31 312 29 365
40 404 86 l24 30 44 -25 c62 -34 180 -65 278 -72 89 -6 283 21 370 52 137 48
353 227 446 367 24 37 44 71 44 75 0 4 6 20 14 35 24 46 56 189 56 250 0 99
-48 179 -120 198 -47 13 -161 -1 -340 -40 -319 -69 -436 -91 -695 -126 -69 -9
-136 -24 -158 -36 -42 -21 -70 -17 -149 23 -33 17 -46 18 -115 8 -43 -6 -91
-16 -108 -23 -16 -7 -42 -16 -57 -20 -35 -8 -37 14 -7 64 12 19 35 60 51 90
16 30 40 73 53 95 69 111 95 164 97 195 3 31 0 35 -22 38 -44 4 -83 -32 -172
-159 -48 -68 -94 -132 -104 -143 -26 -29 -79 -154 -105 -246 -21 -77 -24 -107
-25 -320 -2 -275 -1 -260 -15 -260 -22 0 -148 101 -196 157 -111 127 -163 209
-222 343 -81 186 -85 201 -86 320 l0 105 72 148 c40 81 89 170 108 197 19 27
35 52 35 55 0 10 72 110 105 145 50 55 155 217 193 300 51 113 99 240 144 385
85 273 233 513 457 735 127 126 280 243 396 303 137 70 298 129 420 152 201
38 475 52 647 34z m-216 -2664 c14 -56 -37 -226 -93 -309 -75 -110 -249 -254
-368 -303 -158 -66 -422 -67 -547 -2 -36 18 -110 99 -161 175 -56 84 -74 150
-58 212 16 59 44 69 244 88 90 8 249 33 357 55 107 23 231 47 275 55 44 8 116
23 160 33 44 10 104 19 132 20 48 1 53 -1 59 -24z m-1476 -152 c0 -5 -7 -30
-15 -57 -22 -72 -19 -180 6 -257 28 -82 83 -165 123 -186 34 -18 108 -23 144
-10 17 6 22 5 22 -8 0 -25 -33 -31 -220 -44 -96 -7 -193 -15 -216 -18 l-41 -5
-6 98 c-8 121 -7 388 2 429 6 28 11 31 81 47 85 18 120 21 120 11z m101 -54
c-28 -80 -5 -199 56 -287 36 -53 39 -67 10 -56 -21 8 -47 47 -74 113 -28 67
-32 195 -7 242 20 39 30 30 15 -12z m250 -1510 c148 -19 305 -76 384 -138 67
-54 145 -133 145 -147 0 -11 -18 -14 -77 -14 -118 1 -344 26 -410 47 -75 23
-145 91 -196 191 l-38 72 54 0 c30 0 92 -5 138 -11z m2474 -21 c30 -14 31 -31
4 -103 -28 -75 -72 -123 -139 -153 -64 -29 -139 -31 -287 -7 -50 8 -130 18
-177 21 -47 4 -86 10 -86 14 0 16 149 115 226 148 62 27 198 74 249 85 42 10
185 6 210 -5z"/>
<path d="M5543 5622 c-31 -5 -81 -65 -89 -107 -15 -84 12 -152 76 -189 33 -19
33 -19 69 0 56 30 80 99 67 188 -12 76 -60 118 -123 108z"/>
<path d="M3694 5561 c-23 -14 -38 -36 -53 -76 -12 -30 -21 -63 -21 -73 0 -41
25 -99 55 -129 98 -98 236 27 203 182 -21 98 -107 143 -184 96z"/>
<path d="M4616 5535 c-278 -58 -500 -201 -554 -357 l-23 -67 19 -43 c25 -55
54 -81 120 -107 145 -57 340 -75 717 -67 318 7 428 22 524 70 147 75 147 222
-1 368 -78 77 -185 133 -343 178 -95 27 -129 32 -250 36 -96 2 -161 -1 -209
-11z m379 -138 c22 -8 72 -25 110 -37 127 -40 226 -117 263 -203 16 -37 17
-34 -27 -57 -84 -42 -202 -54 -551 -54 -301 -1 -332 1 -422 21 -53 12 -113 29
-133 37 -31 13 -35 19 -30 38 31 102 91 167 185 203 170 65 225 74 410 70 107
-2 167 -8 195 -18z"/>
<path d="M4453 4233 c-7 -3 -13 -10 -13 -18 0 -29 -55 -135 -107 -205 -73 -97
-215 -239 -277 -275 -56 -33 -47 -43 22 -25 70 19 123 48 162 89 97 99 197
248 220 326 14 50 10 114 -7 108z"/>
</g>
</svg>
