<?xml version="1.0" standalone="no"?>
<!DOCTYPE svg PUBLIC "-//W3C//DTD SVG 20010904//EN"
 "http://www.w3.org/TR/2001/REC-SVG-20010904/DTD/svg10.dtd">
<svg version="1.0" xmlns="http://www.w3.org/2000/svg"
 width="601.000000pt" height="578.000000pt" viewBox="0 0 601.000000 578.000000"
 preserveAspectRatio="xMidYMid meet">

<g transform="translate(0.000000,578.000000) scale(0.100000,-0.100000)"
fill="#000000" stroke="none">
<path d="M2785 5424 c-66 -7 -286 -44 -352 -59 -135 -31 -312 -101 -424 -168
-81 -48 -161 -99 -169 -107 -3 -4 -41 -34 -85 -67 -83 -63 -212 -191 -281
-278 -21 -27 -42 -52 -45 -55 -14 -12 -109 -160 -109 -170 0 -5 -4 -10 -9 -10
-4 0 -22 -30 -40 -67 -18 -38 -36 -75 -41 -83 -6 -8 -44 -91 -85 -185 -42 -93
-91 -203 -110 -243 -19 -39 -35 -74 -35 -77 0 -11 -201 -355 -312 -534 -220
-354 -270 -472 -269 -634 0 -48 2 -91 5 -95 3 -5 15 -55 27 -113 32 -160 65
-229 225 -475 39 -60 96 -162 126 -225 56 -115 112 -210 153 -258 185 -214
383 -473 435 -571 66 -123 109 -205 130 -247 48 -95 140 -192 220 -233 58 -29
186 -60 299 -71 144 -15 642 -5 786 15 77 11 191 16 375 16 232 1 302 -3 563
-32 267 -29 305 -31 370 -20 89 15 165 53 232 114 65 60 108 139 141 264 14
55 30 104 34 109 5 6 18 35 30 65 29 76 108 237 139 285 140 219 212 353 261
490 24 66 47 125 52 132 7 8 25 2 68 -23 138 -81 246 -114 475 -145 78 -10
100 -10 166 5 42 10 90 26 108 37 41 25 65 80 56 128 -14 78 -166 327 -313
511 -42 52 -78 97 -81 100 -15 13 -165 191 -228 270 -39 48 -145 184 -187 240
-53 69 -130 209 -166 300 -25 63 -49 151 -89 330 -50 223 -121 485 -151 555
-4 11 -20 61 -35 110 -15 50 -31 95 -35 100 -3 6 -17 39 -30 75 -50 141 -127
258 -280 423 -79 86 -236 224 -300 265 -30 19 -57 38 -60 42 -3 4 -52 32 -110
62 -140 72 -305 131 -475 169 -126 28 -159 31 -335 34 -107 2 -213 1 -235 -1z
m373 -164 c210 -22 448 -100 630 -207 246 -144 475 -381 591 -612 57 -112 207
-593 250 -801 79 -382 77 -374 169 -570 51 -108 143 -235 360 -495 9 -11 48
-58 87 -105 38 -47 73 -87 76 -90 20 -15 168 -206 216 -280 31 -47 64 -97 74
-112 11 -15 19 -31 19 -35 0 -4 9 -19 20 -33 29 -37 26 -60 -9 -60 -36 0 -187
26 -266 46 -81 20 -200 80 -306 154 -15 11 -42 23 -60 27 l-34 9 -6 105 c-4
57 -7 105 -8 107 0 1 -8 2 -16 2 -22 0 -31 -24 -60 -160 -43 -199 -73 -298
-125 -405 -26 -55 -50 -109 -53 -120 -20 -71 -111 -242 -162 -305 -23 -27
-111 -205 -145 -294 l-34 -88 -41 7 c-100 16 -143 17 -224 5 -86 -12 -242 -65
-336 -113 -59 -30 -202 -133 -242 -176 l-29 -30 -289 -4 c-196 -4 -352 -12
-480 -26 -104 -11 -201 -21 -215 -21 -20 0 -33 13 -60 56 -36 58 -122 143
-196 194 -59 42 -197 96 -305 121 -70 16 -129 22 -231 23 l-137 1 -42 78 c-48
91 -193 286 -343 460 -177 206 -172 197 -101 190 39 -4 66 -1 93 10 23 10 121
24 254 37 277 26 314 34 356 76 l32 32 44 -24 c61 -34 227 -74 309 -74 74 0
273 33 338 55 136 48 353 227 445 367 24 37 44 71 44 75 0 4 6 20 14 35 24 46
56 189 56 250 0 99 -48 179 -120 198 -58 16 -241 -13 -545 -84 -70 -17 -318
-58 -490 -82 -69 -9 -136 -24 -158 -36 -42 -21 -70 -17 -149 23 -33 17 -46 18
-115 8 -43 -6 -91 -16 -108 -23 -16 -7 -42 -16 -57 -20 -39 -9 -37 14 10 95
21 35 41 71 44 80 3 8 33 59 67 114 60 98 88 166 76 185 -3 6 -15 10 -26 10
-45 0 -81 -34 -168 -158 -49 -70 -97 -135 -107 -146 -27 -30 -80 -154 -105
-246 -22 -78 -24 -104 -24 -329 0 -188 -3 -245 -13 -249 -22 -7 -160 106 -225
185 -99 121 -137 181 -192 303 -80 179 -89 211 -90 330 l0 105 72 148 c40 81
89 170 108 197 19 27 35 52 35 55 0 10 73 110 105 145 51 55 154 215 192 299
48 105 104 252 151 401 89 280 221 491 452 721 246 245 523 399 817 454 195
37 473 52 641 35z m-212 -2665 c14 -56 -37 -226 -93 -309 -45 -66 -172 -188
-248 -237 -99 -64 -132 -78 -248 -100 -153 -31 -323 -18 -419 32 -36 18 -110
99 -161 175 -56 84 -74 150 -58 212 16 59 45 69 239 87 171 17 178 18 427 70
371 77 452 92 502 94 48 1 53 -1 59 -24z m-1476 -152 c0 -5 -7 -30 -15 -57
-22 -72 -19 -180 6 -257 28 -82 83 -165 123 -186 33 -17 106 -22 144 -9 17 7
22 5 22 -8 0 -26 -32 -32 -220 -45 -96 -7 -193 -15 -216 -18 l-41 -5 -6 92
c-8 113 -7 394 2 435 6 28 11 31 81 47 85 18 120 21 120 11z m101 -54 c-28
-80 -5 -199 56 -287 36 -53 39 -67 10 -56 -21 8 -47 47 -74 113 -28 67 -32
195 -7 242 20 39 30 30 15 -12z m250 -1510 c192 -25 328 -84 447 -194 45 -42
82 -83 82 -91 0 -11 -17 -14 -77 -14 -114 0 -345 26 -411 47 -74 23 -144 92
-195 191 l-38 72 54 0 c30 0 92 -5 138 -11z m2474 -21 c30 -14 31 -31 4 -103
-28 -74 -68 -118 -137 -151 -65 -31 -136 -33 -285 -9 -49 8 -130 18 -178 21
-49 4 -89 10 -89 14 0 4 35 32 78 62 94 68 226 127 362 162 67 18 210 20 245
4z"/>
<path d="M3973 3952 c-31 -5 -81 -65 -89 -107 -15 -83 12 -152 75 -189 27 -15
36 -16 61 -6 43 18 59 41 72 104 25 119 -30 212 -119 198z"/>
<path d="M2124 3891 c-23 -14 -38 -36 -53 -76 -12 -30 -21 -63 -21 -73 0 -41
25 -99 55 -129 98 -98 236 27 203 182 -21 98 -107 143 -184 96z"/>
<path d="M3046 3864 c-184 -36 -368 -125 -466 -223 -54 -55 -69 -77 -88 -134
l-22 -69 20 -45 c11 -25 28 -52 38 -60 39 -32 124 -62 232 -84 109 -23 133
-24 480 -23 328 1 375 4 462 22 171 37 246 93 256 191 10 110 -100 250 -258
328 -87 42 -218 84 -324 103 -81 14 -246 11 -330 -6z m379 -137 c22 -8 72 -25
110 -37 131 -42 235 -123 263 -208 11 -31 10 -33 -27 -51 -81 -42 -204 -54
-536 -55 -321 -1 -385 4 -527 45 -37 11 -70 23 -73 28 -10 17 31 102 73 151
33 38 56 54 112 75 170 65 225 74 410 70 107 -2 167 -8 195 -18z"/>
<path d="M2884 2559 c-6 -8 -23 -43 -38 -79 -15 -36 -53 -99 -83 -140 -73 -97
-215 -239 -277 -275 -56 -33 -47 -43 22 -25 97 27 148 63 225 159 74 93 134
189 153 243 17 53 16 141 -2 117z"/>
</g>
</svg>
